<svg xmlns="http://www.w3.org/2000/svg" width="295" height="223.022" viewBox="0 0 295 223.022"><g transform="translate(0 -35.989)"><path d="M25,226.011v16.511a16.684,16.684,0,0,0,16.3,16.489H255.365c8.837,0,15.636-7.653,15.636-16.489V226.011H25Z" fill="#fff"/><path d="M271.83,153.011a123.676,123.676,0,0,0-246.994,0Zm-198.5-50.99a8.25,8.25,0,1,1,8.25-8.25A8.249,8.249,0,0,1,73.333,102.021Zm42,33a8.25,8.25,0,1,1,8.25-8.25A8.249,8.249,0,0,1,115.333,135.021Zm33.248-58a8.25,8.25,0,1,1,8.25-8.25A8.249,8.249,0,0,1,148.581,77.021Zm32.752,58a8.25,8.25,0,1,1,8.25-8.25A8.249,8.249,0,0,1,181.333,135.021Zm50.25-41.25a8.25,8.25,0,1,1-8.25-8.25A8.249,8.249,0,0,1,231.583,93.771Z" fill="#fff"/><path d="M275.414,169.011H20.508C9.366,169.011,0,177.789,0,188.932v.414a20.885,20.885,0,0,0,20.508,20.665H275.414c11.142,0,19.586-9.523,19.586-20.665v-.414C295,177.789,286.556,169.011,275.414,169.011Z" fill="#fff"/></g></svg>